HIERARCHY
ROOT newVegas:Hips
{
	OFFSET 0.000000 96.479958 0.000000
	CHANNELS 6 Xposition Yposition Zposition Xrotation Yrotation Zrotation
	JOINT newVegas:Pelvis
	{
		OFFSET 0.000000 0.000000 0.000000
		CHANNELS 3 Xrotation Yrotation Zrotation
		JOINT newVegas:LeftUpLeg
		{
			OFFSET 18.735201 -5.666702 -4.541200
			CHANNELS 3 Xrotation Yrotation Zrotation
			JOINT newVegas:LeftLeg
			{
				OFFSET -0.021200 -31.938179 0.493100
				CHANNELS 3 Xrotation Yrotation Zrotation
				JOINT newVegas:LeftFoot
				{
					OFFSET 0.021200 -31.938179 -4.336299
					CHANNELS 3 Xrotation Yrotation Zrotation
					JOINT newVegas:LeftToeBase
					{
						OFFSET 0.943001 -26.722000 15.023500
						CHANNELS 3 Xrotation Yrotation Zrotation
						End Site
						{
							OFFSET 0.000000 30.670183 0.000000
						}
					}
				}
				JOINT newVegas:Left_PantLeg
				{
					OFFSET 0.663870 -9.044666 -1.108900
					CHANNELS 3 Xrotation Yrotation Zrotation
					End Site
					{
						OFFSET 1.415995 20.635357 0.000000
					}
				}
			}
		}
		JOINT newVegas:RightUpLeg
		{
			OFFSET -18.735201 -5.666702 -4.541200
			CHANNELS 3 Xrotation Yrotation Zrotation
			JOINT newVegas:RightLeg
			{
				OFFSET 0.018946 -31.938133 0.493100
				CHANNELS 3 Xrotation Yrotation Zrotation
				JOINT newVegas:RightFoot
				{
					OFFSET -0.018946 -31.938126 -4.336299
					CHANNELS 3 Xrotation Yrotation Zrotation
					JOINT newVegas:RightToeBase
					{
						OFFSET -0.943001 -26.722004 15.023500
						CHANNELS 3 Xrotation Yrotation Zrotation
						End Site
						{
							OFFSET 0.000000 30.670187 0.000000
						}
					}
				}
				JOINT newVegas:Right_PantLeg
				{
					OFFSET -0.661674 -9.044716 -1.108900
					CHANNELS 3 Xrotation Yrotation Zrotation
					End Site
					{
						OFFSET -1.415958 20.635269 0.000000
					}
				}
			}
		}
	}
	JOINT newVegas:Spine
	{
		OFFSET 0.000000 10.199997 -0.299500
		CHANNELS 3 Xrotation Yrotation Zrotation
		JOINT newVegas:Spine1
		{
			OFFSET 0.000000 11.900002 -1.516600
			CHANNELS 3 Xrotation Yrotation Zrotation
			JOINT newVegas:Spine2
			{
				OFFSET 0.000000 13.600006 -2.842500
				CHANNELS 3 Xrotation Yrotation Zrotation
				JOINT newVegas:Neck
				{
					OFFSET 0.000000 9.624100 -2.890100
					CHANNELS 3 Xrotation Yrotation Zrotation
					JOINT newVegas:Head
					{
						OFFSET 0.000000 14.068802 -1.351900
						CHANNELS 3 Xrotation Yrotation Zrotation
						JOINT newVegas:Hair_Back
						{
							OFFSET 0.000000 3.231903 -17.524799
							CHANNELS 3 Xrotation Yrotation Zrotation
							End Site
							{
								OFFSET 0.000000 19.849884 0.000000
							}
						}
						JOINT newVegas:Hair_Front
						{
							OFFSET 0.000000 31.260406 4.573800
							CHANNELS 3 Xrotation Yrotation Zrotation
							JOINT newVegas:Hair_Front1
							{
								OFFSET 0.000000 2.284103 11.993300
								CHANNELS 3 Xrotation Yrotation Zrotation
								JOINT newVegas:Hair_Front2
								{
									OFFSET 0.000000 2.284103 11.993300
									CHANNELS 3 Xrotation Yrotation Zrotation
									End Site
									{
										OFFSET 0.000000 12.208862 0.000000
									}
								}
							}
						}
						JOINT newVegas:Jowel
						{
							OFFSET 0.000000 -7.458206 6.864100
							CHANNELS 3 Xrotation Yrotation Zrotation
							End Site
							{
								OFFSET 0.000000 19.849884 0.000000
							}
						}
					}
				}
				JOINT newVegas:LeftShoulder
				{
					OFFSET 15.263000 10.923401 -0.547700
					CHANNELS 3 Xrotation Yrotation Zrotation
					JOINT newVegas:LeftArm
					{
						OFFSET 25.438599 -2.830597 -13.032500
						CHANNELS 3 Xrotation Yrotation Zrotation
						JOINT newVegas:LeftForeArm
						{
							OFFSET 29.960503 0.000000 0.000000
							CHANNELS 3 Xrotation Yrotation Zrotation
							JOINT newVegas:LeftHand
							{
								OFFSET 27.849251 0.000000 0.000000
								CHANNELS 3 Xrotation Yrotation Zrotation
								JOINT newVegas:LeftHandThumb1
								{
									OFFSET 4.487587 -3.305161 6.305391
									CHANNELS 3 Xrotation Yrotation Zrotation
									JOINT newVegas:LeftHandThumb2
									{
										OFFSET 5.480453 -3.164139 3.164143
										CHANNELS 3 Xrotation Yrotation Zrotation
										JOINT newVegas:LeftHandThumb3
										{
											OFFSET 5.159721 -2.978973 2.978967
											CHANNELS 3 Xrotation Yrotation Zrotation
											End Site
											{
												OFFSET 2.494507 5.926697 1.738678
											}
										}
									}
								}
								JOINT newVegas:LeftHandIndex1
								{
									OFFSET 18.578728 -0.527832 5.208049
									CHANNELS 3 Xrotation Yrotation Zrotation
									JOINT newVegas:LeftHandIndex2
									{
										OFFSET 3.192009 0.000000 0.000000
										CHANNELS 3 Xrotation Yrotation Zrotation
										JOINT newVegas:LeftHandIndex3
										{
											OFFSET 3.835129 0.000000 0.000000
											CHANNELS 3 Xrotation Yrotation Zrotation
											End Site
											{
												OFFSET -0.034599 3.816971 0.371180
											}
										}
									}
								}
								JOINT newVegas:LeftHandMiddle1
								{
									OFFSET 18.476105 0.000000 0.000000
									CHANNELS 3 Xrotation Yrotation Zrotation
									JOINT newVegas:LeftHandMiddle2
									{
										OFFSET 3.324875 0.000000 0.000000
										CHANNELS 3 Xrotation Yrotation Zrotation
										JOINT newVegas:LeftHandMiddle3
										{
											OFFSET 4.596550 0.000000 0.000000
											CHANNELS 3 Xrotation Yrotation Zrotation
											End Site
											{
												OFFSET 0.057701 4.578827 0.399218
											}
										}
									}
								}
								JOINT newVegas:LeftHandRing1
								{
									OFFSET 17.732719 0.121887 -4.201567
									CHANNELS 3 Xrotation Yrotation Zrotation
									JOINT newVegas:LeftHandRing2
									{
										OFFSET 2.733170 0.000000 0.000000
										CHANNELS 3 Xrotation Yrotation Zrotation
										JOINT newVegas:LeftHandRing3
										{
											OFFSET 3.178268 0.000000 0.000000
											CHANNELS 3 Xrotation Yrotation Zrotation
											End Site
											{
												OFFSET 0.119102 3.170624 0.185394
											}
										}
									}
								}
								JOINT newVegas:LeftHandPinky1
								{
									OFFSET 15.989624 -0.606689 -7.535461
									CHANNELS 3 Xrotation Yrotation Zrotation
									JOINT newVegas:LeftHandPinky2
									{
										OFFSET 2.538986 0.000000 0.000000
										CHANNELS 3 Xrotation Yrotation Zrotation
										JOINT newVegas:LeftHandPinky3
										{
											OFFSET 2.593102 0.000000 0.000000
											CHANNELS 3 Xrotation Yrotation Zrotation
											End Site
											{
												OFFSET -0.150902 2.584198 0.152708
											}
										}
									}
								}
							}
							JOINT newVegas:Left_Sleeve
							{
								OFFSET 0.267448 -0.649796 0.577675
								CHANNELS 3 Xrotation Yrotation Zrotation
								End Site
								{
									OFFSET 0.000000 15.991241 0.000000
								}
							}
							JOINT newVegas:Left_CapeC
							{
								OFFSET 15.715958 -8.608795 -6.935905
								CHANNELS 3 Xrotation Yrotation Zrotation
								JOINT newVegas:Left_CapeC1
								{
									OFFSET 0.000000 -8.688499 0.000000
									CHANNELS 3 Xrotation Yrotation Zrotation
									End Site
									{
										OFFSET 0.000000 8.688499 0.000000
									}
								}
							}
						}
						JOINT newVegas:Left_CapeB
						{
							OFFSET 26.118385 -8.608795 -7.079235
							CHANNELS 3 Xrotation Yrotation Zrotation
							JOINT newVegas:Left_CapeB1
							{
								OFFSET 0.000000 -8.688499 0.000000
								CHANNELS 3 Xrotation Yrotation Zrotation
								End Site
								{
									OFFSET 0.000000 8.688499 0.000000
								}
							}
						}
						JOINT newVegas:Left_CapeA
						{
							OFFSET 5.115639 -8.608795 -10.395809
							CHANNELS 3 Xrotation Yrotation Zrotation
							JOINT newVegas:Left_CapeA1
							{
								OFFSET 0.000000 -8.688499 0.000000
								CHANNELS 3 Xrotation Yrotation Zrotation
								End Site
								{
									OFFSET 0.000000 8.688499 0.000000
								}
							}
						}
					}
				}
				JOINT newVegas:RightShoulder
				{
					OFFSET -15.263000 10.923401 -0.547700
					CHANNELS 3 Xrotation Yrotation Zrotation
					JOINT newVegas:RightArm
					{
						OFFSET -25.438599 -2.830597 -13.032500
						CHANNELS 3 Xrotation Yrotation Zrotation
						JOINT newVegas:RightForeArm
						{
							OFFSET -29.960503 0.000000 0.000000
							CHANNELS 3 Xrotation Yrotation Zrotation
							JOINT newVegas:RightHand
							{
								OFFSET -27.849251 0.000000 0.000000
								CHANNELS 3 Xrotation Yrotation Zrotation
								JOINT newVegas:RightHandThumb1
								{
									OFFSET -4.487587 -3.305161 6.305391
									CHANNELS 3 Xrotation Yrotation Zrotation
									JOINT newVegas:RightHandThumb2
									{
										OFFSET -5.480453 -3.164139 3.164143
										CHANNELS 3 Xrotation Yrotation Zrotation
										JOINT newVegas:RightHandThumb3
										{
											OFFSET -5.159721 -2.978973 2.978967
											CHANNELS 3 Xrotation Yrotation Zrotation
											End Site
											{
												OFFSET -2.494507 5.926697 1.738678
											}
										}
									}
								}
								JOINT newVegas:RightHandIndex1
								{
									OFFSET -18.578728 -0.527832 5.208049
									CHANNELS 3 Xrotation Yrotation Zrotation
									JOINT newVegas:RightHandIndex2
									{
										OFFSET -3.192009 0.000000 0.000000
										CHANNELS 3 Xrotation Yrotation Zrotation
										JOINT newVegas:RightHandIndex3
										{
											OFFSET -3.835129 0.000000 0.000000
											CHANNELS 3 Xrotation Yrotation Zrotation
											End Site
											{
												OFFSET 0.034599 3.816971 0.371180
											}
										}
									}
								}
								JOINT newVegas:RightHandMiddle1
								{
									OFFSET -18.476105 0.000000 0.000000
									CHANNELS 3 Xrotation Yrotation Zrotation
									JOINT newVegas:RightHandMiddle2
									{
										OFFSET -3.324875 0.000000 0.000000
										CHANNELS 3 Xrotation Yrotation Zrotation
										JOINT newVegas:RightHandMiddle3
										{
											OFFSET -4.596550 0.000000 0.000000
											CHANNELS 3 Xrotation Yrotation Zrotation
											End Site
											{
												OFFSET -0.057701 4.578827 0.399218
											}
										}
									}
								}
								JOINT newVegas:RightHandRing1
								{
									OFFSET -17.732719 0.121887 -4.201567
									CHANNELS 3 Xrotation Yrotation Zrotation
									JOINT newVegas:RightHandRing2
									{
										OFFSET -2.733170 0.000000 0.000000
										CHANNELS 3 Xrotation Yrotation Zrotation
										JOINT newVegas:RightHandRing3
										{
											OFFSET -3.178268 0.000000 0.000000
											CHANNELS 3 Xrotation Yrotation Zrotation
											End Site
											{
												OFFSET -0.119102 3.170624 0.185394
											}
										}
									}
								}
								JOINT newVegas:RightHandPinky1
								{
									OFFSET -15.989624 -0.606689 -7.535461
									CHANNELS 3 Xrotation Yrotation Zrotation
									JOINT newVegas:RightHandPinky2
									{
										OFFSET -2.538986 0.000000 0.000000
										CHANNELS 3 Xrotation Yrotation Zrotation
										JOINT newVegas:RightHandPinky3
										{
											OFFSET -2.593102 0.000000 0.000000
											CHANNELS 3 Xrotation Yrotation Zrotation
											End Site
											{
												OFFSET 0.150902 2.584198 0.152708
											}
										}
									}
								}
							}
							JOINT newVegas:Right_CapeC
							{
								OFFSET -15.715958 -8.608795 -6.935905
								CHANNELS 3 Xrotation Yrotation Zrotation
								JOINT newVegas:Right_CapeC1
								{
									OFFSET 0.000000 -8.688499 0.000000
									CHANNELS 3 Xrotation Yrotation Zrotation
									End Site
									{
										OFFSET 0.000000 8.688499 0.000000
									}
								}
							}
							JOINT newVegas:Right_Sleeve
							{
								OFFSET -0.267448 -0.649994 0.577675
								CHANNELS 3 Xrotation Yrotation Zrotation
								End Site
								{
									OFFSET 0.000000 15.991302 0.000000
								}
							}
						}
						JOINT newVegas:Right_CapeA
						{
							OFFSET -5.115540 -8.608795 -10.395824
							CHANNELS 3 Xrotation Yrotation Zrotation
							JOINT newVegas:Right_CapeA1
							{
								OFFSET 0.000000 -8.688499 0.000000
								CHANNELS 3 Xrotation Yrotation Zrotation
								End Site
								{
									OFFSET 0.000000 8.688499 0.000000
								}
							}
						}
						JOINT newVegas:Right_CapeB
						{
							OFFSET -26.118187 -8.608795 -7.079266
							CHANNELS 3 Xrotation Yrotation Zrotation
							JOINT newVegas:Right_CapeB1
							{
								OFFSET 0.000000 -8.688499 0.000000
								CHANNELS 3 Xrotation Yrotation Zrotation
								End Site
								{
									OFFSET 0.000000 8.688499 0.000000
								}
							}
						}
					}
				}
				JOINT newVegas:Left_Collar
				{
					OFFSET 18.625099 8.655502 8.828100
					CHANNELS 3 Xrotation Yrotation Zrotation
					JOINT newVegas:Left_Collar1
					{
						OFFSET 14.783401 10.540405 -1.259500
						CHANNELS 3 Xrotation Yrotation Zrotation
						End Site
						{
							OFFSET 0.000000 18.199875 0.000000
						}
					}
				}
				JOINT newVegas:Collar_Back
				{
					OFFSET 0.000000 15.630707 -20.132601
					CHANNELS 3 Xrotation Yrotation Zrotation
					End Site
					{
						OFFSET 0.000000 22.523010 0.000000
					}
				}
				JOINT newVegas:Left_Peck
				{
					OFFSET 17.239599 -5.132599 25.482599
					CHANNELS 3 Xrotation Yrotation Zrotation
					End Site
					{
						OFFSET 0.000000 22.523010 0.000000
					}
				}
				JOINT newVegas:Right_Peck
				{
					OFFSET -17.239599 -5.132202 25.482599
					CHANNELS 3 Xrotation Yrotation Zrotation
					End Site
					{
						OFFSET 0.000000 22.523010 0.000000
					}
				}
				JOINT newVegas:Right_Collar
				{
					OFFSET -18.625099 8.655792 8.828100
					CHANNELS 3 Xrotation Yrotation Zrotation
					JOINT newVegas:Right_Collar1
					{
						OFFSET -14.783401 10.539993 -1.259500
						CHANNELS 3 Xrotation Yrotation Zrotation
						End Site
						{
							OFFSET 0.000000 18.199631 0.000000
						}
					}
				}
			}
		}
		JOINT newVegas:Belly
		{
			OFFSET 0.000000 -6.540398 9.014299
			CHANNELS 3 Xrotation Yrotation Zrotation
			End Site
			{
				OFFSET 0.000000 11.566666 0.000000
			}
		}
	}
	JOINT newVegas:ElvisFacialAnim_Joint
	{
		OFFSET 1.000000 -95.330101 -8.825800
		CHANNELS 3 Xrotation Yrotation Zrotation
		End Site
		{
			OFFSET 0.000000 35.315800 0.000000
		}
	}
}
MOTION
Frames: 4
Frame Time: 0.016667
-3.875768 84.168579 2.567417 12.300214 -55.785608 11.083052 -0.000000 -0.000000 0.000000 -47.997215 3.988308 30.979747 45.772663 -11.673600 -10.703070 -5.543801 -0.940304 -5.868210 -0.000000 -0.000002 -0.000000 -0.000000 0.000001 -0.000000 -29.180866 -8.257815 -24.023720 54.682860 10.293034 -0.836228 -39.153158 -6.717669 13.593229 -0.000000 -0.000000 0.000000 -0.000002 0.000000 -0.000002 11.712292 1.277674 -2.541517 -7.573172 6.733739 -2.520091 0.220138 5.397592 -4.595491 -2.049734 8.374130 4.218930 -2.049740 8.374114 4.218927 0.000001 -0.000002 -0.000001 -2.049663 8.374106 4.218922 -2.049735 8.374151 4.218918 -0.000000 0.000000 -0.000000 0.000001 -0.000002 -0.000000 -31.809707 13.410714 5.488765 38.429523 -24.730783 -35.179183 -0.000009 -63.060862 -0.000023 -30.857569 -7.137409 36.647841 -1.721981 5.255669 -13.188773 20.563147 52.534673 0.189429 -0.000000 0.000002 0.000001 12.956315 -4.115554 -90.449716 8.952197 4.964092 -122.050973 -0.000002 -0.000003 -0.000002 9.405883 8.323691 -88.069060 9.453582 4.613499 -128.051717 -0.000000 0.000001 0.000003 6.580854 8.180086 -91.968094 8.173845 5.371708 -113.426028 0.000004 -0.000001 0.000001 -3.227045 20.112032 -75.571713 5.936815 5.850424 -90.841379 0.000001 -0.000003 -0.000000 -0.000001 0.000000 -0.000003 -0.000001 0.000000 -0.000003 -0.000001 0.000000 -0.000003 0.000001 -0.000001 0.000001 0.000001 -0.000001 -0.000003 0.000001 -0.000001 0.000001 0.000000 -0.000000 0.000001 0.882302 7.689505 10.202003 7.550371 1.963482 57.853738 0.000004 75.685196 -0.000017 35.320848 10.055736 5.680937 -3.341842 -3.276464 13.774172 20.875165 -54.536062 -0.016311 0.000005 -0.000000 -0.000000 11.836832 5.289170 89.687433 7.123263 -3.951868 122.001618 0.000002 -0.000002 0.000001 8.171024 -7.103195 87.309017 7.522342 -3.673016 127.998469 -0.000004 -0.000002 -0.000001 4.801467 -6.930742 91.181332 6.503990 -4.276040 113.385983 -0.000002 0.000001 -0.000002 -4.344466 -18.765282 74.899212 4.725339 -4.656650 90.839774 0.000002 0.000003 0.000001 -0.000002 -0.000003 -0.000003 0.000000 0.000000 -0.000003 -0.000002 -0.000003 -0.000003 -0.000000 0.000000 -0.000002 0.000000 0.000000 -0.000001 -0.000000 0.000000 -0.000002 0.000000 -0.000000 -0.000001 -0.000000 0.000004 -0.000001 -0.000000 0.000004 -0.000001 -0.000000 0.000004 -0.000001 -0.000000 0.000004 -0.000001 -0.000000 0.000004 -0.000001 -0.000000 0.000004 -0.000001 -0.000000 0.000004 -0.000001 -0.000001 0.000001 -0.000000 -0.000000 -0.000000 0.000000 
-3.902892 84.177483 2.561318 12.254726 -55.784662 11.024971 -0.000000 0.000001 -0.000000 -47.951247 3.975851 31.025806 45.753016 -11.626770 -10.715047 -5.539413 -1.008975 -5.888727 0.000000 0.000004 0.000000 -0.000000 0.000001 0.000000 -29.108955 -8.295940 -23.982153 54.643713 10.289453 -0.836621 -39.163246 -6.717322 13.573690 -0.000001 -0.000001 -0.000000 0.000000 0.000002 0.000001 11.712319 1.277495 -2.542610 -7.573171 6.733731 -2.520088 0.220137 5.397612 -4.595492 -2.022526 8.397349 4.199389 -2.022521 8.397356 4.199391 0.000001 0.000000 0.000000 -2.022527 8.397361 4.199389 -2.022534 8.397368 4.199389 -0.000000 -0.000000 -0.000001 0.000001 0.000000 0.000001 -31.777807 12.952632 5.310873 38.682903 -24.912973 -34.934556 -0.000018 -62.511653 0.000004 -31.157520 -7.391293 36.475273 -1.721951 5.255654 -13.188769 20.563135 52.534660 0.189410 -0.000000 -0.000001 -0.000006 12.956332 -4.115566 -90.449723 8.952185 4.964058 -122.050986 0.000001 0.000001 -0.000002 9.405884 8.323682 -88.069081 9.453600 4.613519 -128.051731 0.000000 -0.000001 0.000002 6.580864 8.180064 -91.968108 8.173825 5.371686 -113.426028 -0.000000 -0.000000 -0.000002 -3.227030 20.112033 -75.571713 5.936828 5.850413 -90.841386 -0.000003 -0.000000 0.000001 0.000001 -0.000003 -0.000002 0.000001 -0.000003 -0.000002 0.000000 -0.000004 -0.000002 -0.000001 0.000000 0.000001 -0.000000 0.000000 -0.000002 -0.000001 0.000000 0.000001 -0.000002 -0.000000 0.000001 1.018006 7.684534 10.077997 7.270299 2.953154 57.421086 -0.000039 75.186169 0.000037 34.670935 9.864162 5.516731 -3.341835 -3.276456 13.774158 20.875174 -54.536059 -0.016319 0.000001 0.000001 0.000003 11.836842 5.289174 89.687398 7.123247 -3.951858 122.001645 -0.000002 0.000002 0.000003 8.171034 -7.103196 87.309010 7.522317 -3.673033 127.998414 0.000002 -0.000000 0.000001 4.801468 -6.930742 91.181332 6.503993 -4.276053 113.385990 0.000004 -0.000001 -0.000003 -4.344449 -18.765287 74.899219 4.725339 -4.656641 90.839774 0.000003 -0.000000 0.000001 -0.000001 0.000002 -0.000002 0.000000 -0.000000 0.000001 -0.000001 0.000002 -0.000001 0.000001 0.000001 -0.000003 0.000001 0.000000 -0.000003 0.000001 0.000001 -0.000003 0.000001 -0.000000 -0.000003 0.000000 0.000002 -0.000001 0.000000 0.000002 -0.000001 0.000000 0.000002 -0.000001 0.000000 0.000002 -0.000001 0.000000 0.000002 -0.000001 0.000000 0.000002 -0.000001 0.000000 0.000002 -0.000001 0.000000 0.000001 -0.000001 -0.000000 0.000001 -0.000000 
-3.935806 84.175049 2.560681 12.216261 -55.729221 10.974145 0.000000 0.000001 -0.000000 -47.954915 3.957680 31.056132 45.741688 -11.581294 -10.725573 -5.514056 -1.120580 -5.900701 -0.000000 0.000000 -0.000000 0.000001 0.000007 -0.000001 -29.021347 -8.338558 -23.941010 54.630527 10.287004 -0.836648 -39.218881 -6.767745 13.538934 -0.000000 -0.000000 0.000000 0.000001 -0.000002 0.000000 11.712344 1.277102 -2.543433 -7.573168 6.733733 -2.520089 0.220137 5.397587 -4.595493 -2.004550 8.431874 4.182247 -2.004547 8.431866 4.182248 -0.000000 0.000000 -0.000000 -2.004547 8.431866 4.182250 -2.004481 8.431875 4.182239 -0.000000 0.000001 -0.000001 -0.000000 0.000000 0.000000 -31.754075 12.465671 5.128833 39.012302 -25.126442 -34.726984 0.000013 -61.838798 -0.000002 -31.459629 -7.671476 36.216163 -1.721963 5.255647 -13.188780 20.563160 52.534660 0.189409 0.000001 0.000002 -0.000006 12.956316 -4.115558 -90.449709 8.952182 4.964072 -122.051000 -0.000001 -0.000004 0.000002 9.405894 8.323677 -88.069060 9.453582 4.613503 -128.051731 0.000000 0.000000 -0.000001 6.580868 8.180075 -91.968087 8.173835 5.371709 -113.426028 -0.000001 0.000001 0.000004 -3.227029 20.112018 -75.571699 5.936808 5.850412 -90.841400 -0.000001 -0.000003 -0.000002 0.000002 0.000002 0.000001 0.000002 0.000002 0.000001 0.000002 0.000001 0.000001 0.000001 -0.000004 -0.000000 0.000002 -0.000003 -0.000003 0.000001 -0.000004 -0.000000 0.000000 -0.000003 0.000001 1.163716 7.679719 9.947279 6.979122 3.931133 56.951750 -0.000105 74.671767 0.000132 33.974560 9.690987 5.366337 -3.341833 -3.276467 13.774156 20.875204 -54.536065 -0.016316 -0.000001 0.000002 0.000001 11.836848 5.289156 89.687446 7.123253 -3.951869 122.001631 0.000001 -0.000003 -0.000002 8.171032 -7.103203 87.309010 7.522337 -3.673038 127.998455 0.000001 -0.000000 -0.000000 4.801480 -6.930756 91.181338 6.504006 -4.276046 113.385990 0.000001 0.000004 -0.000000 -4.344453 -18.765294 74.899226 4.725340 -4.656647 90.839788 -0.000002 0.000002 -0.000000 -0.000000 -0.000003 -0.000001 0.000002 -0.000003 0.000000 -0.000000 -0.000003 -0.000000 -0.000001 0.000000 0.000002 -0.000000 0.000001 0.000002 -0.000001 0.000000 0.000002 -0.000000 0.000001 0.000002 0.000000 -0.000003 0.000001 0.000000 -0.000003 0.000001 0.000000 -0.000003 0.000001 0.000000 -0.000003 0.000001 0.000000 -0.000003 0.000001 0.000000 -0.000003 0.000001 0.000000 -0.000003 0.000001 -0.000001 -0.000005 0.000001 0.000000 0.000001 -0.000000 
-3.966494 84.181175 2.559701 12.183254 -55.711312 10.922662 0.000000 -0.000000 -0.000000 -47.929418 3.941564 31.101048 45.728615 -11.535175 -10.737557 -5.508017 -1.203443 -5.917296 0.000000 -0.000002 -0.000000 0.000001 -0.000001 0.000000 -28.942500 -8.382421 -23.895567 54.587487 10.283245 -0.836996 -39.238931 -6.782301 13.516809 -0.000001 -0.000002 -0.000000 0.000000 0.000000 0.000000 11.712353 1.276768 -2.544749 -7.573166 6.733740 -2.520090 0.220140 5.397586 -4.595490 -1.994446 8.477449 4.163861 -1.994438 8.477439 4.163865 -0.000000 -0.000000 -0.000000 -1.994442 8.477434 4.163861 -1.994439 8.477442 4.163867 -0.000000 -0.000001 -0.000002 -0.000000 -0.000000 -0.000000 -31.738352 11.953795 4.944354 39.461585 -25.312637 -34.536862 -0.000037 -61.081016 -0.000032 -31.790023 -7.988994 35.931784 -1.721957 5.255647 -13.188785 20.563138 52.534642 0.189415 0.000004 -0.000000 -0.000003 12.956335 -4.115553 -90.449723 8.952188 4.964067 -122.051000 -0.000000 -0.000002 -0.000003 9.405879 8.323672 -88.069081 9.453598 4.613517 -128.051731 -0.000000 0.000001 -0.000001 6.580861 8.180065 -91.968108 8.173840 5.371711 -113.426015 0.000001 -0.000001 -0.000001 -3.227021 20.112021 -75.571726 5.936827 5.850400 -90.841393 0.000006 0.000000 -0.000002 -0.000000 0.000003 -0.000004 -0.000000 0.000003 -0.000004 -0.000000 0.000002 -0.000004 0.000000 0.000001 0.000002 0.000001 0.000000 0.000001 0.000000 0.000001 0.000002 -0.000000 0.000001 0.000002 1.316083 7.674895 9.811790 6.684433 4.902611 56.464296 0.000073 74.142933 -0.000081 33.251079 9.531737 5.218460 -3.341842 -3.276474 13.774156 20.875196 -54.536052 -0.016288 0.000000 -0.000001 0.000001 11.836837 5.289156 89.687405 7.123252 -3.951871 122.001631 -0.000001 -0.000000 0.000005 8.171039 -7.103202 87.309017 7.522321 -3.673019 127.998455 -0.000003 -0.000001 0.000000 4.801478 -6.930761 91.181325 6.504001 -4.276046 113.386003 0.000003 0.000001 -0.000003 -4.344460 -18.765296 74.899212 4.725344 -4.656653 90.839774 -0.000003 0.000002 -0.000002 0.000001 -0.000001 -0.000001 0.000001 0.000000 -0.000001 0.000001 -0.000001 -0.000000 -0.000001 0.000000 0.000001 -0.000001 0.000001 -0.000001 -0.000001 0.000000 0.000001 -0.000001 0.000001 0.000001 -0.000000 0.000004 -0.000001 -0.000000 0.000004 -0.000001 -0.000000 0.000004 -0.000001 -0.000000 0.000004 -0.000001 -0.000000 0.000004 -0.000001 -0.000000 0.000004 -0.000001 -0.000000 0.000004 -0.000001 -0.000001 -0.000000 0.000000 0.000000 -0.000000 -0.000000 
